<mxfile host="65bd71144e">
    <diagram id="7E-m66op0I5YfhdemHyv" name="Page-1">
        <mxGraphModel dx="2517" dy="970" grid="1" gridSize="10" guides="1" tooltips="1" connect="1" arrows="1" fold="1" page="1" pageScale="1" pageWidth="1169" pageHeight="1654" background="#ffffff" math="0" shadow="0">
            <root>
                <mxCell id="0"/>
                <mxCell id="1" parent="0"/>
                <mxCell id="3" value="&lt;font color=&quot;#0f0f0e&quot; style=&quot;font-size: 15px;&quot;&gt;Qualtrics Survey DOM design as at Feb 2022&lt;/font&gt;" style="text;html=1;strokeColor=none;fillColor=none;align=left;verticalAlign=middle;whiteSpace=wrap;rounded=0;fontSize=15;" vertex="1" parent="1">
                    <mxGeometry x="50" y="20" width="350" height="30" as="geometry"/>
                </mxCell>
                <mxCell id="4" value="&lt;b&gt;html.JFEScope&lt;/b&gt;" style="whiteSpace=wrap;html=1;fontColor=#0F0F0E;fillColor=#FFCCCC;labelPosition=left;verticalLabelPosition=top;align=right;verticalAlign=bottom;" vertex="1" parent="1">
                    <mxGeometry x="130" y="80" width="980" height="1500" as="geometry"/>
                </mxCell>
                <mxCell id="5" value="&lt;b&gt;body#SurveyEngineBody&amp;nbsp;&lt;/b&gt;" style="whiteSpace=wrap;html=1;fontColor=#0F0F0E;fillColor=#FF9999;labelPosition=left;verticalLabelPosition=top;align=right;verticalAlign=bottom;perimeterSpacing=1;strokeColor=#808080;" vertex="1" parent="1">
                    <mxGeometry x="170" y="100" width="930" height="1450" as="geometry"/>
                </mxCell>
                <mxCell id="6" value="&lt;b&gt;div#[Survey Code?]&lt;/b&gt;" style="whiteSpace=wrap;html=1;fontColor=#0F0F0E;fillColor=#FF6666;labelPosition=left;verticalLabelPosition=top;align=right;verticalAlign=bottom;perimeterSpacing=1;strokeColor=#808080;" vertex="1" parent="1">
                    <mxGeometry x="210" y="120" width="870" height="1410" as="geometry"/>
                </mxCell>
                <mxCell id="7" value="&lt;b&gt;div.JFEContent.SkinV2.?webkit.?CSS3&amp;nbsp;&lt;/b&gt;" style="whiteSpace=wrap;html=1;fontColor=#0F0F0E;fillColor=#FFE6CC;labelPosition=left;verticalLabelPosition=top;align=right;verticalAlign=bottom;perimeterSpacing=1;strokeColor=#808080;" vertex="1" parent="1">
                    <mxGeometry x="240" y="150" width="810" height="1360" as="geometry"/>
                </mxCell>
                <mxCell id="8" value="&lt;b&gt;form#Page.Page.ActivePage&lt;/b&gt;" style="whiteSpace=wrap;html=1;fontColor=#0F0F0E;fillColor=#FFCC99;labelPosition=left;verticalLabelPosition=top;align=right;verticalAlign=bottom;perimeterSpacing=1;strokeColor=#808080;" vertex="1" parent="1">
                    <mxGeometry x="265" y="170" width="760" height="1320" as="geometry"/>
                </mxCell>
                <mxCell id="9" value="&lt;b&gt;div.Skin&lt;/b&gt;" style="whiteSpace=wrap;html=1;fontColor=#0F0F0E;fillColor=#FFB366;labelPosition=left;verticalLabelPosition=top;align=right;verticalAlign=bottom;perimeterSpacing=1;strokeColor=#808080;" vertex="1" parent="1">
                    <mxGeometry x="283.75" y="185" width="722.5" height="1280" as="geometry"/>
                </mxCell>
                <mxCell id="10" value="&lt;b&gt;div#Overlay&amp;nbsp;&lt;/b&gt;" style="whiteSpace=wrap;html=1;fontColor=#0F0F0E;fillColor=#FFFFCC;labelPosition=left;verticalLabelPosition=top;align=right;verticalAlign=bottom;perimeterSpacing=1;strokeColor=#808080;" vertex="1" parent="1">
                    <mxGeometry x="330" y="200" width="666.25" height="50" as="geometry"/>
                </mxCell>
                <mxCell id="11" value="&lt;b&gt;div#Wrapper&amp;nbsp;&lt;/b&gt;" style="whiteSpace=wrap;html=1;fontColor=#0F0F0E;fillColor=#FFFFCC;labelPosition=left;verticalLabelPosition=top;align=right;verticalAlign=bottom;perimeterSpacing=1;strokeColor=#808080;" vertex="1" parent="1">
                    <mxGeometry x="330" y="270" width="666.25" height="1100" as="geometry"/>
                </mxCell>
                <mxCell id="12" value="&lt;b&gt;div#Plug&amp;nbsp;&lt;/b&gt;" style="whiteSpace=wrap;html=1;fontColor=#0F0F0E;fillColor=#FFFFCC;labelPosition=left;verticalLabelPosition=top;align=right;verticalAlign=bottom;perimeterSpacing=1;strokeColor=#808080;" vertex="1" parent="1">
                    <mxGeometry x="330" y="1390" width="666.25" height="50" as="geometry"/>
                </mxCell>
                <mxCell id="14" value="*&lt;i&gt;powered by Qualtrics&lt;/i&gt; box" style="text;html=1;strokeColor=none;fillColor=none;align=center;verticalAlign=middle;whiteSpace=wrap;rounded=0;fontSize=15;fontColor=#0F0F0E;" vertex="1" parent="1">
                    <mxGeometry x="260" y="1400" width="360" height="30" as="geometry"/>
                </mxCell>
                <mxCell id="15" value="*?? used by Qualtrics?" style="text;html=1;strokeColor=none;fillColor=none;align=left;verticalAlign=middle;whiteSpace=wrap;rounded=0;fontSize=15;fontColor=#0F0F0E;" vertex="1" parent="1">
                    <mxGeometry x="350" y="210" width="360" height="30" as="geometry"/>
                </mxCell>
                <mxCell id="16" value="&lt;b&gt;div.SkinInner&amp;nbsp;&lt;/b&gt;" style="whiteSpace=wrap;html=1;fontColor=#0F0F0E;fillColor=#FFFF99;labelPosition=left;verticalLabelPosition=top;align=right;verticalAlign=bottom;perimeterSpacing=1;strokeColor=#808080;" vertex="1" parent="1">
                    <mxGeometry x="345" y="295" width="636.25" height="905" as="geometry"/>
                </mxCell>
                <mxCell id="17" value="&lt;b&gt;div#Footer&amp;nbsp;&lt;/b&gt;" style="whiteSpace=wrap;html=1;fontColor=#0F0F0E;fillColor=#FFFF99;labelPosition=left;verticalLabelPosition=top;align=right;verticalAlign=bottom;perimeterSpacing=1;strokeColor=#808080;" vertex="1" parent="1">
                    <mxGeometry x="345" y="1220" width="636.25" height="55" as="geometry"/>
                </mxCell>
                <mxCell id="18" value="&lt;b&gt;div#PushStickyFooter&amp;nbsp;&lt;/b&gt;" style="whiteSpace=wrap;html=1;fontColor=#0F0F0E;fillColor=#FFFF99;labelPosition=left;verticalLabelPosition=top;align=right;verticalAlign=bottom;perimeterSpacing=1;strokeColor=#808080;" vertex="1" parent="1">
                    <mxGeometry x="345" y="1300" width="636.25" height="55" as="geometry"/>
                </mxCell>
                <mxCell id="19" value="&lt;b&gt;div.#LogoContainer&amp;nbsp;&lt;/b&gt;" style="whiteSpace=wrap;html=1;fontColor=#0F0F0E;fillColor=#FFFF66;labelPosition=left;verticalLabelPosition=top;align=right;verticalAlign=bottom;perimeterSpacing=1;strokeColor=#808080;" vertex="1" parent="1">
                    <mxGeometry x="357.5" y="320" width="611.25" height="50" as="geometry"/>
                </mxCell>
                <mxCell id="20" value="&lt;b&gt;div#HeaderContainer&amp;nbsp;&lt;/b&gt;" style="whiteSpace=wrap;html=1;fontColor=#0F0F0E;fillColor=#FFFF66;labelPosition=left;verticalLabelPosition=top;align=right;verticalAlign=bottom;perimeterSpacing=1;strokeColor=#808080;" vertex="1" parent="1">
                    <mxGeometry x="357.5" y="390" width="611.25" height="90" as="geometry"/>
                </mxCell>
                <mxCell id="21" value="&lt;b&gt;div.#SkinContent&amp;nbsp;&lt;/b&gt;" style="whiteSpace=wrap;html=1;fontColor=#0F0F0E;fillColor=#FFFF66;labelPosition=left;verticalLabelPosition=top;align=right;verticalAlign=bottom;perimeterSpacing=1;strokeColor=#808080;" vertex="1" parent="1">
                    <mxGeometry x="357.5" y="510" width="611.25" height="590" as="geometry"/>
                </mxCell>
                <mxCell id="22" value="&lt;b&gt;div.#ProgressBar&amp;nbsp;&lt;/b&gt;" style="whiteSpace=wrap;html=1;fontColor=#0F0F0E;fillColor=#FFFF66;labelPosition=left;verticalLabelPosition=top;align=right;verticalAlign=bottom;perimeterSpacing=1;strokeColor=#808080;" vertex="1" parent="1">
                    <mxGeometry x="357.5" y="1130" width="611.25" height="50" as="geometry"/>
                </mxCell>
                <mxCell id="23" value="Houses progress bar if used (Qualtrics renders as a table ugh)" style="text;html=1;strokeColor=none;fillColor=none;align=left;verticalAlign=middle;whiteSpace=wrap;rounded=0;fontSize=15;fontColor=#0F0F0E;" vertex="1" parent="1">
                    <mxGeometry x="370" y="1140" width="510" height="30" as="geometry"/>
                </mxCell>
                <mxCell id="24" value="Houses custom logo if added through Qualtrics GUI? - otherwise display:none" style="text;html=1;strokeColor=none;fillColor=none;align=left;verticalAlign=middle;whiteSpace=wrap;rounded=0;fontSize=15;fontColor=#0F0F0E;" vertex="1" parent="1">
                    <mxGeometry x="370" y="330" width="550" height="30" as="geometry"/>
                </mxCell>
                <mxCell id="26" value="" style="edgeStyle=none;html=1;fontSize=15;fontColor=#0F0F0E;" edge="1" parent="1" source="25" target="21">
                    <mxGeometry relative="1" as="geometry"/>
                </mxCell>
                <mxCell id="25" value="&lt;b&gt;div#Header&amp;nbsp;&lt;/b&gt;" style="whiteSpace=wrap;html=1;fontColor=#0F0F0E;fillColor=#E6FFCC;labelPosition=left;verticalLabelPosition=top;align=right;verticalAlign=bottom;perimeterSpacing=1;strokeColor=#808080;" vertex="1" parent="1">
                    <mxGeometry x="370" y="420" width="592.5" height="45" as="geometry"/>
                </mxCell>
                <mxCell id="27" value="Houses user-def header HTML (ie. thisco script tags)" style="text;html=1;strokeColor=none;fillColor=none;align=left;verticalAlign=middle;whiteSpace=wrap;rounded=0;fontSize=15;fontColor=#0F0F0E;" vertex="1" parent="1">
                    <mxGeometry x="380" y="427.5" width="490" height="30" as="geometry"/>
                </mxCell>
                <mxCell id="28" value="&lt;b&gt;div#Questions&amp;nbsp;&lt;/b&gt;" style="whiteSpace=wrap;html=1;fontColor=#0F0F0E;fillColor=#E6FFCC;labelPosition=left;verticalLabelPosition=top;align=right;verticalAlign=bottom;perimeterSpacing=1;strokeColor=#808080;" vertex="1" parent="1">
                    <mxGeometry x="366.88" y="530" width="592.5" height="460" as="geometry"/>
                </mxCell>
                <mxCell id="29" value="&lt;b&gt;div#Buttons&amp;nbsp;&amp;nbsp;&lt;/b&gt;" style="whiteSpace=wrap;html=1;fontColor=#0F0F0E;fillColor=#E6FFCC;labelPosition=left;verticalLabelPosition=top;align=right;verticalAlign=bottom;perimeterSpacing=1;strokeColor=#808080;" vertex="1" parent="1">
                    <mxGeometry x="366.88" y="1010" width="592.5" height="80" as="geometry"/>
                </mxCell>
                <mxCell id="30" value="Question content : arbitrary markup of question blocks hereafter" style="text;html=1;strokeColor=none;fillColor=none;align=left;verticalAlign=middle;whiteSpace=wrap;rounded=0;fontSize=15;fontColor=#0F0F0E;" vertex="1" parent="1">
                    <mxGeometry x="380" y="540" width="470" height="30" as="geometry"/>
                </mxCell>
                <mxCell id="32" value="&lt;b&gt;div#[QIDxx].QuestionOuter&amp;nbsp;&lt;/b&gt;" style="whiteSpace=wrap;html=1;fontColor=#0F0F0E;fillColor=#CCFF99;labelPosition=left;verticalLabelPosition=top;align=right;verticalAlign=bottom;perimeterSpacing=1;strokeColor=#808080;" vertex="1" parent="1">
                    <mxGeometry x="420" y="590" width="522.5" height="45" as="geometry"/>
                </mxCell>
                <mxCell id="33" value="&lt;b&gt;div#[QIDxx].QuestionOuter&amp;nbsp;&lt;/b&gt;" style="whiteSpace=wrap;html=1;fontColor=#0F0F0E;fillColor=#CCFF99;labelPosition=left;verticalLabelPosition=top;align=right;verticalAlign=bottom;perimeterSpacing=1;strokeColor=#808080;" vertex="1" parent="1">
                    <mxGeometry x="420" y="650" width="522.5" height="45" as="geometry"/>
                </mxCell>
                <mxCell id="34" value="&lt;b&gt;div#[QIDxx].QuestionOuter&amp;nbsp;&lt;/b&gt;" style="whiteSpace=wrap;html=1;fontColor=#0F0F0E;fillColor=#CCFF99;labelPosition=left;verticalLabelPosition=top;align=right;verticalAlign=bottom;perimeterSpacing=1;strokeColor=#808080;" vertex="1" parent="1">
                    <mxGeometry x="420" y="720" width="522.5" height="45" as="geometry"/>
                </mxCell>
                <mxCell id="35" value="&lt;b&gt;div#[QIDxx].QuestionOuter&amp;nbsp;&lt;/b&gt;" style="whiteSpace=wrap;html=1;fontColor=#0F0F0E;fillColor=#CCFF99;labelPosition=left;verticalLabelPosition=top;align=right;verticalAlign=bottom;perimeterSpacing=1;strokeColor=#808080;" vertex="1" parent="1">
                    <mxGeometry x="420" y="782.5" width="522.5" height="45" as="geometry"/>
                </mxCell>
                <mxCell id="36" value="&lt;b&gt;input#NextButton.NextButton.Button&amp;nbsp;&lt;/b&gt;" style="whiteSpace=wrap;html=1;fontColor=#0F0F0E;fillColor=#CCFF99;labelPosition=left;verticalLabelPosition=top;align=right;verticalAlign=bottom;perimeterSpacing=1;strokeColor=#808080;" vertex="1" parent="1">
                    <mxGeometry x="812.5" y="1040" width="130" height="32.5" as="geometry"/>
                </mxCell>
            </root>
        </mxGraphModel>
    </diagram>
</mxfile>